<?xml version="1.0" standalone="no"?>
<!DOCTYPE svg PUBLIC "-//W3C//DTD SVG 20010904//EN"
 "http://www.w3.org/TR/2001/REC-SVG-20010904/DTD/svg10.dtd">
<svg version="1.0" xmlns="http://www.w3.org/2000/svg"
 width="500.000000pt" height="500.000000pt" viewBox="0 0 500.000000 500.000000"
 preserveAspectRatio="xMidYMid meet">

<g transform="translate(0.000000,500.000000) scale(0.100000,-0.100000)"
fill="#000000" stroke="none">
<path d="M2370 3984 c-14 -2 -70 -11 -125 -20 -441 -70 -836 -372 -1046 -799
-51 -105 -93 -215 -84 -223 3 -3 10 9 16 27 22 62 17 25 -7 -59 -34 -116 -54
-249 -53 -345 l1 -80 14 120 c7 66 18 143 24 170 16 78 43 176 47 171 2 -2 -5
-39 -16 -83 -11 -43 -23 -105 -26 -138 l-5 -60 14 70 c60 310 196 577 388 762
417 402 954 517 1467 314 405 -161 711 -510 821 -939 36 -141 53 -432 29 -517
-5 -16 -11 -53 -13 -82 -19 -203 -155 -493 -317 -678 -27 -31 -49 -59 -49 -63
0 -3 30 23 66 58 74 72 70 53 -7 -40 -59 -71 -171 -168 -271 -235 -39 -27 -79
-56 -88 -64 -9 -9 -25 -22 -36 -29 -10 -7 5 -1 34 13 197 95 419 300 547 505
37 59 110 224 141 319 54 165 85 368 79 526 -1 39 2 79 6 90 6 12 7 -57 5
-170 -4 -197 -19 -297 -67 -456 -33 -107 -150 -334 -221 -429 -190 -251 -486
-448 -786 -525 -54 -14 -69 -21 -55 -27 10 -4 -4 -6 -32 -3 -33 3 -41 2 -25
-3 20 -7 12 -10 -47 -20 -39 -7 -90 -12 -112 -12 -23 0 -41 -4 -41 -10 0 -12
-9 -12 108 1 566 61 1045 436 1231 964 18 49 30 98 27 107 -2 11 0 15 6 12 7
-5 9 2 4 20 -5 20 -4 26 5 20 9 -5 10 1 5 20 -4 18 -3 25 4 21 6 -3 10 4 9 17
0 13 5 46 11 73 7 28 12 127 12 220 0 261 -45 474 -143 668 -206 410 -587 702
-1037 797 -93 20 -353 35 -412 24z m1125 -434 c10 -11 16 -20 13 -20 -3 0 -13
9 -23 20 -10 11 -16 20 -13 20 3 0 13 -9 23 -20z m260 -360 c14 -27 23 -50 20
-50 -2 0 -16 23 -30 50 -14 28 -23 50 -20 50 2 0 16 -22 30 -50z m-2564 -157
c-12 -20 -14 -14 -5 12 4 9 9 14 11 11 3 -2 0 -13 -6 -23z m2726 -305 c-3 -7
-5 -2 -5 12 0 14 2 19 5 13 2 -7 2 -19 0 -25z m-186 -1016 c-58 -109 -251
-314 -388 -412 -70 -50 -49 -29 38 40 100 79 241 227 305 320 46 67 65 90 45
52z m-844 -628 c-3 -3 -12 -4 -19 -1 -8 3 -5 6 6 6 11 1 17 -2 13 -5z m-40
-10 c-3 -3 -12 -4 -19 -1 -8 3 -5 6 6 6 11 1 17 -2 13 -5z"/>
<path d="M3090 3473 c-78 -46 -314 -277 -422 -413 -86 -109 -180 -244 -261
-376 l-56 -91 -58 -5 c-140 -13 -191 -89 -88 -131 25 -11 45 -23 45 -28 0 -5
-11 -27 -25 -49 -14 -22 -74 -126 -134 -232 -188 -334 -343 -660 -322 -681 16
-16 34 6 66 83 78 187 440 860 462 860 18 0 275 -117 337 -153 93 -54 205
-166 242 -242 33 -69 42 -156 26 -270 -10 -75 -3 -92 30 -74 27 15 38 70 27
148 -12 84 7 295 46 518 36 204 25 185 101 177 36 -4 64 -3 64 2 0 5 -27 20
-60 33 -33 13 -60 26 -60 29 0 26 81 392 160 722 16 69 30 133 30 143 0 23
-44 67 -67 67 -10 0 -47 -17 -83 -37z m115 -13 c3 -11 -21 -130 -54 -267 -65
-266 -131 -567 -131 -595 0 -17 -19 -18 -302 -12 -167 4 -305 8 -307 10 -11 9
153 245 272 389 177 215 459 495 499 495 9 0 19 -9 23 -20z m-895 -925 c0 -8
-30 -65 -34 -65 -14 0 -76 32 -76 39 0 5 17 13 38 19 43 12 72 14 72 7z m680
-11 c7 -7 3 -53 -16 -160 -14 -82 -31 -194 -38 -248 l-11 -100 -33 51 c-70
108 -187 193 -416 302 -79 38 -146 73 -149 78 -3 5 6 28 20 52 l25 43 304 -4
c198 -2 307 -7 314 -14z"/>
<path d="M1103 2595 c0 -38 2 -53 4 -32 2 20 2 52 0 70 -2 17 -4 1 -4 -38z"/>
<path d="M1210 1821 c0 -6 4 -13 10 -16 6 -3 7 1 4 9 -7 18 -14 21 -14 7z"/>
<path d="M1250 1753 c92 -168 349 -424 520 -518 34 -18 -9 14 -85 66 -111 74
-296 262 -374 379 -73 108 -94 134 -61 73z"/>
<path d="M3380 1489 l-45 -41 42 32 c37 27 61 51 51 50 -2 0 -23 -19 -48 -41z"/>
<path d="M1750 1306 c0 -3 9 -10 20 -16 11 -6 20 -8 20 -6 0 3 -9 10 -20 16
-11 6 -20 8 -20 6z"/>
<path d="M1890 1306 c0 -3 9 -10 20 -16 11 -6 20 -8 20 -6 0 3 -9 10 -20 16
-11 6 -20 8 -20 6z"/>
<path d="M1807 1264 c3 -8 8 -13 10 -10 3 2 13 -4 24 -15 11 -11 24 -17 29
-14 6 4 10 1 10 -5 0 -6 5 -8 10 -5 6 3 10 1 10 -5 0 -6 5 -8 10 -5 6 3 10 1
10 -5 0 -6 4 -9 9 -6 5 3 26 -1 46 -10 77 -32 39 -7 -65 43 -66 31 -106 45
-103 37z"/>
<path d="M2513 1153 c9 -2 23 -2 30 0 6 3 -1 5 -18 5 -16 0 -22 -2 -12 -5z"/>
<path d="M1987 1130 c13 -12 131 -53 142 -49 6 2 -26 16 -70 30 -44 15 -77 23
-72 19z"/>
<path d="M2258 1103 c6 -2 18 -2 25 0 6 3 1 5 -13 5 -14 0 -19 -2 -12 -5z"/>
<path d="M2663 1073 c9 -2 23 -2 30 0 6 3 -1 5 -18 5 -16 0 -22 -2 -12 -5z"/>
<path d="M2483 1063 c9 -2 25 -2 35 0 9 3 1 5 -18 5 -19 0 -27 -2 -17 -5z"/>
<path d="M2573 1063 c9 -2 25 -2 35 0 9 3 1 5 -18 5 -19 0 -27 -2 -17 -5z"/>
<path d="M2663 1053 c9 -2 25 -2 35 0 9 3 1 5 -18 5 -19 0 -27 -2 -17 -5z"/>
<path d="M2423 1043 c9 -2 25 -2 35 0 9 3 1 5 -18 5 -19 0 -27 -2 -17 -5z"/>
<path d="M2517 1043 c18 -2 50 -2 70 0 21 2 7 4 -32 4 -38 0 -55 -2 -38 -4z"/>
</g>
</svg>
